HIERARCHY
ROOT Hips
{
	OFFSET 0.00000 0.00000 0.00000
	CHANNELS 6 Xposition Yposition Zposition Zrotation Yrotation Xrotation 
	JOINT RightUpLegDummy
	{
		OFFSET 0 0 0
		CHANNELS 3 Zrotation Yrotation Xrotation
		JOINT RightUpLeg
		{
			OFFSET -3.52197 -3.41223 0.04002
			CHANNELS 3 Zrotation Yrotation Xrotation
			JOINT RightLeg
			{
				OFFSET 0.00006 -17.42390 1.60435
				CHANNELS 3 Zrotation Yrotation Xrotation
				JOINT RightFoot
				{
					OFFSET 0.06153 -16.50078 -1.63901
					CHANNELS 3 Zrotation Yrotation Xrotation
					JOINT RightToes
					{
						OFFSET 0.00298 -1.73825 3.34613
						CHANNELS 3 Zrotation Yrotation Xrotation
						End Site
						{
							OFFSET 0.00480 -0.05416 3.85043
						}
					}
				}
			}
		}
	}
	JOINT SpineDummy
	{
		OFFSET 0 0 0
		CHANNELS 3 Zrotation Yrotation Xrotation
		JOINT Spine
		{
			OFFSET 0.00000 4.68130 0.00000
			CHANNELS 3 Zrotation Yrotation Xrotation
			JOINT Spine1
			{
				OFFSET -0.00000 10.10138 0.05002
				CHANNELS 3 Zrotation Yrotation Xrotation
				JOINT HEadDummy
				{
					OFFSET 0 0 0
					CHANNELS 3 Zrotation Yrotation Xrotation
					JOINT Head
					{
						OFFSET -0.00000 3.43865 0.00438
						CHANNELS 3 Zrotation Yrotation Xrotation
						End Site
						{
							OFFSET -0.11417 5.02924 0.98962
						}
					}
				}
				JOINT LeftShoulder1Dummy
				{
					OFFSET 0 0 0
					CHANNELS 3 Zrotation Yrotation Xrotation
					JOINT LeftShoulder1
					{
						OFFSET 3.53937 -0.14262 -0.08662
						CHANNELS 3 Zrotation Yrotation Xrotation
						JOINT LeftArm
						{
							OFFSET 4.04833 -0.00133 0.12681
							CHANNELS 3 Zrotation Yrotation Xrotation
							JOINT LeftForeArm
							{
								OFFSET 10.33880 -0.01036 -0.55515
								CHANNELS 3 Zrotation Yrotation Xrotation
								JOINT LeftHand
								{
									OFFSET 8.69677 0.07543 0.40060
									CHANNELS 3 Zrotation Yrotation Xrotation
									End Site
									{
										OFFSET 5.28377 -0.21905 0.59205
									}
								}
							}
						}
					}
				}
				JOINT RightShoulderDummy
				{
					OFFSET 0 0 0
					CHANNELS 3 Zrotation Yrotation Xrotation
					JOINT RightShoulder
					{
						OFFSET -3.53937 -0.14262 -0.08660
						CHANNELS 3 Zrotation Yrotation Xrotation
						JOINT RightArm
						{
							OFFSET -4.04833 -0.00133 0.12683
							CHANNELS 3 Zrotation Yrotation Xrotation
							JOINT RightForeArm
							{
								OFFSET -10.37987 -0.01039 -0.55511
								CHANNELS 3 Zrotation Yrotation Xrotation
								JOINT RightHand
								{
									OFFSET -8.67398 0.07538 0.40058
									CHANNELS 3 Zrotation Yrotation Xrotation
									End Site
									{
										OFFSET -5.24810 -0.21916 0.59204
									}
								}
							}
						}
					}
				}
			}
		}
	}
	JOINT LeftUpLegDummy
	{
		OFFSET 0 0 0
		CHANNELS 3 Zrotation Yrotation Xrotation
		JOINT LeftUpLeg
		{
			OFFSET 3.52197 -3.41223 0.04002
			CHANNELS 3 Zrotation Yrotation Xrotation
			JOINT LeftLeg
			{
				OFFSET -0.00012 -17.42399 1.60337
				CHANNELS 3 Zrotation Yrotation Xrotation
				JOINT LeftFoot
				{
					OFFSET -0.09972 -16.50070 -1.63802
					CHANNELS 3 Zrotation Yrotation Xrotation
					JOINT LeftToes
					{
						OFFSET -0.01575 -1.73823 3.34611
						CHANNELS 3 Zrotation Yrotation Xrotation
						End Site
						{
							OFFSET 0.03150 -0.01868 3.85031
						}
					}
				}
			}
		}
	}
}
MOTION
Frames: 6
Frame Time: 0.033333
-46.9575 39.8507 80.1322 -179.3620 2.8433 176.9390 0.0000 0.0000 0.0000 2.8830 -0.9035 2.6196 -1.5846 -4.4685 4.7027 -3.2677 0.1769 -4.3765 0.0000 -0.0000 -0.0000 0.0000 0.0000 0.0000 0.6308 -0.0739 -3.1331 1.6459 -0.5463 6.8177 -0.0000 0.0000 -0.0000 2.6936 -0.6019 -15.5037 -0.0000 0.0000 -0.0000 -31.7856 -3.4550 2.6288 -44.5245 -15.8052 -24.6393 -4.4631 4.6065 65.2171 28.9119 -1.5339 -1.7310 -0.0000 0.0000 -0.0000 35.3131 5.3313 3.6525 38.7433 4.0503 -16.7513 10.9715 -3.4855 25.8840 -10.6028 1.5712 -0.6224 0.0000 0.0000 0.0000 0.5657 1.7653 2.9812 1.0323 5.2812 5.9717 3.8478 -0.1500 -6.0959 0.0000 0.0000 -0.0000
-46.9414 39.8507 80.1599 -179.3180 2.7186 176.9930 0.0000 0.0000 0.0000 2.9677 -0.8622 2.5477 -1.6024 -4.6698 4.6576 -3.3275 0.1805 -4.2997 0.0000 -0.0000 -0.0000 0.0000 0.0000 0.0000 0.6058 -0.0851 -2.8560 1.7494 -0.5743 6.4555 -0.0000 0.0000 -0.0000 2.7348 -0.3423 -15.6493 -0.0000 0.0000 -0.0000 -31.8420 -3.4433 2.6288 -44.5468 -15.5650 -24.4119 -4.4819 4.5549 66.5589 24.4921 -0.9430 -1.3770 -0.0000 0.0000 -0.0000 35.5602 5.3596 3.6866 38.5380 3.7562 -16.5024 11.1014 -3.0703 25.2745 -10.2841 1.6172 -0.6067 0.0000 0.0000 0.0000 0.6543 1.8039 2.8129 0.9991 5.1093 6.0773 3.8313 -0.1490 -6.0907 0.0000 0.0000 -0.0000
-46.9156 39.8507 80.2037 -179.3460 2.5656 176.9850 0.0000 0.0000 0.0000 2.9759 -0.8851 2.4984 -1.5981 -4.8371 4.6484 -3.3929 0.1845 -4.2378 0.0000 -0.0000 -0.0000 0.0000 0.0000 0.0000 0.6332 -0.0998 -2.1899 1.6986 -0.5636 5.7126 -0.0000 0.0000 -0.0000 2.8361 -0.2992 -15.7857 -0.0000 0.0000 -0.0000 -31.8334 -3.4296 2.6241 -44.6390 -15.0983 -23.9791 -4.4983 4.4617 68.9005 13.6869 0.6370 -0.5392 -0.0000 0.0000 -0.0000 35.9219 5.3954 3.7344 38.3486 3.3206 -16.1626 11.2599 -2.3564 24.4925 -9.9477 1.8871 -0.6076 0.0000 0.0000 0.0000 0.6552 1.7750 2.7108 1.0098 4.9847 6.1204 3.8044 -0.1472 -6.0302 0.0000 0.0000 -0.0000
-46.8913 39.8507 80.2314 -179.4420 2.7085 176.8670 0.0000 0.0000 0.0000 2.9036 -0.9394 2.5399 -1.5657 -4.6575 4.7109 -3.4728 0.1897 -4.2420 0.0000 -0.0000 -0.0000 0.0000 0.0000 0.0000 0.8172 -0.0333 -1.6062 1.3914 -0.4216 5.1246 -0.0000 0.0000 -0.0000 2.9812 -0.4664 -15.6404 -0.0000 0.0000 -0.0000 -31.8354 -3.5313 2.6627 -44.8081 -14.6708 -22.8024 -4.3065 4.1597 76.2354 12.3880 4.4061 -0.1298 -0.0000 0.0000 -0.0000 36.1366 5.4135 3.7616 38.3272 3.2303 -15.8969 11.3765 -1.8586 24.0034 -10.2109 2.0380 -0.6362 0.0000 0.0000 0.0000 0.5592 1.7056 2.8545 1.0908 5.1962 6.0272 3.7168 -0.1416 -5.9598 0.0000 0.0000 -0.0000
-46.8672 39.8491 80.2450 -179.4590 2.9836 176.7390 0.0000 0.0000 0.0000 2.9387 -0.9060 2.6252 -1.5622 -4.4296 4.7476 -3.5856 0.1969 -4.2365 0.0000 -0.0000 -0.0000 0.0000 0.0000 0.0000 1.0772 0.0470 -1.3675 1.1348 -0.2914 4.9322 -0.0000 0.0000 -0.0000 3.0815 -0.4399 -15.3554 -0.0000 0.0000 -0.0000 -31.9787 -3.6675 2.7244 -44.7827 -14.5918 -21.8853 -3.5308 3.6354 88.1014 11.0678 5.7371 -0.0052 -0.0000 0.0000 -0.0000 35.9915 5.3839 3.7359 38.5569 3.6378 -15.6672 11.4659 -1.6486 23.8229 -10.6601 1.9694 -0.6593 0.0000 0.0000 0.0000 0.5387 1.6672 3.0062 1.2161 5.4845 6.0263 3.5693 -0.1321 -5.9691 0.0000 0.0000 -0.0000
-46.8401 39.8455 80.2664 -179.3880 2.9703 176.6520 0.0000 0.0000 0.0000 3.0896 -0.8168 2.7112 -1.6103 -4.5496 4.7141 -3.6589 0.2015 -4.1914 0.0000 -0.0000 -0.0000 0.0000 0.0000 0.0000 1.2590 -0.0155 -1.1737 1.0948 -0.3563 4.8243 -0.0000 0.0000 -0.0000 3.1146 -0.2246 -15.2368 -0.0000 0.0000 -0.0000 -32.1436 -3.6397 2.7255 -44.8704 -14.8008 -20.8161 -2.6831 3.0105 101.7250 10.1592 6.4496 0.0494 -0.0000 0.0000 -0.0000 35.6006 5.3175 3.6728 38.9771 4.2130 -15.3481 11.5517 -1.3241 23.7264 -10.6621 1.8210 -0.6471 0.0000 0.0000 0.0000 0.5954 1.6100 2.9776 1.3749 5.4893 6.2142 3.4350 -0.1267 -6.0313 0.0000 0.0000 -0.0000
